<?xml version="1.0" encoding="utf-8"?>
<!-- Generator: Adobe Illustrator 19.1.0, SVG Export Plug-In . SVG Version: 6.00 Build 0)  -->
<svg version="1.1"
	 id="svg2" xmlns:dc="http://purl.org/dc/elements/1.1/" xmlns:cc="http://creativecommons.org/ns#" xmlns:svg="http://www.w3.org/2000/svg" xmlns:inkscape="http://www.inkscape.org/namespaces/inkscape" xmlns:rdf="http://www.w3.org/1999/02/22-rdf-syntax-ns#"
	 xmlns="http://www.w3.org/2000/svg" xmlns:xlink="http://www.w3.org/1999/xlink" x="0px" y="0px" viewBox="-227 197.5 300 300"
	 style="enable-background:new -227 197.5 300 300;" xml:space="preserve">
<style type="text/css">
	.st0{fill:#1B2530;}
</style>
<path id="path24" inkscape:connector-curvature="0" class="st0" d="M-31.4,347.5l53.8-90.7l26,90.7l-26,90.6L-31.4,347.5z
	 M-57.6,362.2l53.8,90.6l-93.7-23.4l-67.7-67.2H-57.6L-57.6,362.2z M-3.8,242.1l-53.8,90.7h-107.6l67.7-67.2L-3.8,242.1L-3.8,242.1z
	 M73,316.7L40.2,197.5l-122.5,31.9l-18.1,31.1l-36.8-0.3l-89.7,87.2l89.7,87.2h0l36.8-0.3l18.2,31.1l122.5,31.9L73,378.4l-18.6-30.9
	L73,316.7"/>
</svg>
